<svg xmlns="http://www.w3.org/2000/svg" width="21" height="27" viewBox="0 0 21 27">
    <g fill="none" fill-rule="evenodd">
        <g fill="#000" fill-rule="nonzero">
            <g>
                <path d="M10.36 5.003C9.05 5.88 7.569 6.875 6.774 8.52c-1.38 2.87 2.824 6.002 3.004 6.134.041.03.091.046.141.046.053 0 .106-.017.15-.052.083-.066.106-.18.056-.271-.015-.028-1.524-2.823-1.468-4.829.02-.698 1.045-1.49 2.13-2.329.994-.768 2.12-1.639 2.78-2.657 1.447-2.242-.162-4.447-.178-4.469-.064-.085-.182-.117-.283-.074-.1.042-.156.146-.133.249.003.014.316 1.472-.555 2.974-.358.62-1.146 1.149-2.058 1.76z" transform="translate(-346 -44) translate(346 44)"/>
                <path d="M15.872 5.991c.092-.066.12-.187.064-.283-.056-.097-.178-.14-.286-.1-.222.08-5.443 2-5.443 4.318 0 1.598.716 2.442 1.239 3.059.205.242.382.45.44.629.165.513-.225 1.442-.388 1.757-.047.09-.024.2.056.266.043.035.098.053.152.053.046 0 .092-.013.132-.04.09-.059 2.194-1.477 1.817-3.186-.14-.65-.476-1.125-.771-1.543-.458-.65-.788-1.118-.287-1.984.588-1.01 3.248-2.926 3.275-2.946z" transform="translate(-346 -44) translate(346 44)"/>
                <path d="M2.283 15.727c-.09.256-.047.51.122.733.566.75 2.57 1.162 5.645 1.162.417 0 .856-.008 1.307-.023 4.915-.168 6.738-1.628 6.813-1.69.082-.068.104-.18.053-.272-.05-.09-.16-.136-.266-.109-1.73.45-4.963.61-7.205.61-2.509 0-3.787-.171-4.1-.299.161-.21 1.151-.585 2.378-.815.117-.022.198-.125.186-.239-.012-.113-.111-.2-.23-.2-.72 0-4.326.056-4.703 1.142zM18.73 14.223c-1.014 0-1.975.485-2.016.506-.093.047-.14.15-.115.248.026.099.118.168.225.168.021 0 2.162.017 2.356 1.183.172 1.006-2.026 2.637-2.887 3.18-.093.059-.129.172-.086.27.037.084.122.136.214.136.016 0 .032-.002.049-.005.204-.042 5-1.05 4.492-3.711-.309-1.632-1.384-1.975-2.232-1.975zM15.441 19.182c.017-.085-.02-.172-.095-.221l-1.15-.768c-.055-.038-.126-.05-.192-.033-.012.003-1.215.304-2.96.49-.693.073-1.47.112-2.245.112-1.745 0-2.886-.195-3.052-.339-.022-.04-.015-.058-.011-.068.03-.08.192-.176.296-.213.115-.04.177-.16.141-.272-.035-.112-.157-.178-.276-.15-1.154.264-1.718.636-1.677 1.102.073.827 2.083 1.252 3.781 1.364.245.016.509.024.785.024 2.826 0 6.447-.845 6.483-.853.088-.021.156-.09.172-.175zM6.773 20.958c.087-.054.125-.157.094-.251-.03-.095-.123-.157-.227-.156-.155.004-1.513.062-1.608.887-.029.246.045.471.22.669.488.55 1.804.878 4.023 1.001.263.015.53.022.793.022 2.821 0 4.721-.842 4.8-.878.078-.034.129-.107.133-.188.005-.081-.038-.158-.11-.2l-1.453-.847c-.05-.029-.111-.039-.169-.027-.009.002-.932.184-2.324.364-.263.034-.593.052-.98.052-1.391 0-2.939-.217-3.235-.359-.005-.026.001-.06.043-.09z" transform="translate(-346 -44) translate(346 44)"/>
                <path d="M8.753 25.674c6.462-.006 9.931-1.101 10.6-1.791.236-.244.261-.475.241-.626-.05-.371-.404-.598-.444-.623-.097-.06-.228-.044-.303.04-.076.083-.077.204-.002.287.041.05.065.134-.055.248-.267.238-2.96.96-7.447 1.177-.614.03-1.259.045-1.915.046-4.017 0-6.956-.525-7.342-.83.149-.204 1.189-.53 2.294-.714.125-.02.21-.133.19-.252-.02-.12-.135-.201-.26-.185-.032.004-.138.01-.26.017-1.825.106-3.933.343-4.043 1.24-.033.272.052.52.253.736.493.528 1.91 1.23 8.493 1.23z" transform="translate(-346 -44) translate(346 44)"/>
                <path d="M20.622 24.077c-.092-.04-.2-.02-.268.05-.01.01-.981.98-3.902 1.548-1.119.214-3.218.322-6.24.322-3.028 0-5.909-.114-5.938-.115-.12-.005-.223.078-.24.191-.016.113.06.22.177.246.03.007 3.05.681 7.177.681 1.98 0 3.907-.153 5.727-.456 3.394-.567 3.631-2.172 3.64-2.24.011-.095-.042-.186-.133-.227z" transform="translate(-346 -44) translate(346 44)"/>
            </g>
        </g>
    </g>
</svg>
