<svg xmlns="http://www.w3.org/2000/svg" width="18" height="21" viewBox="0 0 18 21">
    <g fill="none" fill-rule="evenodd">
        <g fill="#000" fill-rule="nonzero">
            <g>
                <path d="M18 9.024l-.03.02c-.088.065-.182.128-.283.19l-.05.028c-.091.053-.187.106-.287.157l-.082.042c-.116.056-.235.111-.362.165l-.074.03c-.112.046-.226.09-.344.133l-.097.035c-.138.049-.28.096-.428.141l-.099.03c-.128.038-.258.074-.39.11-.036.01-.07.02-.106.028-.156.041-.318.08-.484.116-.039.01-.078.018-.117.026-.144.032-.29.062-.44.091l-.103.021c-.174.033-.35.064-.529.093-.043.008-.088.014-.131.021-.157.025-.318.05-.48.072l-.096.014c-.185.025-.373.048-.562.069l-.142.015c-.174.019-.348.036-.523.052l-.072.007c-.195.017-.39.031-.587.044l-.145.011c-.186.012-.373.022-.56.03l-.046.003c-.2.008-.4.015-.6.02l-.146.002c-.201.004-.403.007-.604.007-.2 0-.402-.003-.604-.007l-.146-.003c-.2-.005-.4-.011-.6-.02l-.046-.002c-.187-.008-.373-.018-.56-.03l-.146-.01c-.196-.013-.391-.027-.587-.044l-.07-.007c-.176-.015-.35-.033-.524-.052l-.143-.015c-.188-.022-.376-.045-.561-.07l-.099-.011c-.161-.023-.32-.047-.479-.072l-.131-.02c-.18-.03-.355-.061-.529-.094l-.104-.02c-.148-.03-.295-.06-.439-.092l-.117-.026c-.165-.037-.327-.076-.484-.116l-.105-.028c-.134-.036-.264-.073-.391-.11l-.1-.03c-.146-.046-.289-.093-.427-.141l-.097-.035c-.118-.043-.232-.088-.344-.133l-.074-.03C.968 9.575.848 9.52.732 9.464L.65 9.422c-.1-.052-.195-.104-.287-.157l-.05-.029c-.1-.061-.196-.125-.283-.19L0 9.027v4.145c0 .97 3.424 2.324 9 2.324 5.575 0 9-1.353 9-2.324V9.024z" transform="translate(-566 -109) translate(566 109)"/>
                <path d="M18 14.447l-.03.02c-.088.065-.182.128-.283.19l-.05.029c-.091.053-.187.105-.287.156l-.082.042c-.116.057-.235.112-.362.165l-.074.03c-.112.046-.226.09-.344.133l-.097.036c-.138.048-.28.095-.428.14l-.099.03c-.128.039-.258.075-.39.11l-.106.029c-.156.04-.318.08-.484.116l-.117.025c-.144.032-.29.063-.44.092l-.103.02c-.174.033-.35.064-.529.094l-.131.02c-.157.026-.318.05-.48.072l-.096.014c-.185.026-.373.049-.562.07l-.142.015c-.174.018-.348.036-.523.052l-.072.006c-.195.017-.39.032-.587.045l-.145.01c-.186.012-.373.022-.56.03l-.046.003c-.2.009-.4.015-.6.02l-.146.003c-.201.004-.403.006-.604.006-.2 0-.402-.002-.604-.006l-.146-.003c-.2-.005-.4-.012-.6-.02l-.046-.002c-.187-.009-.373-.019-.56-.03l-.146-.01c-.196-.013-.391-.027-.587-.044l-.07-.007c-.176-.016-.35-.033-.524-.052l-.143-.016c-.188-.021-.376-.044-.561-.069L4.915 16c-.161-.022-.32-.046-.479-.071l-.131-.021c-.18-.03-.355-.061-.529-.094l-.104-.02c-.148-.03-.295-.06-.439-.092l-.117-.025c-.165-.038-.327-.076-.484-.117-.035-.008-.07-.018-.105-.028-.134-.036-.264-.072-.391-.11l-.1-.03c-.146-.045-.289-.092-.427-.14l-.097-.036c-.118-.043-.232-.087-.344-.133l-.074-.03c-.126-.054-.246-.108-.362-.165l-.082-.042c-.1-.051-.195-.103-.287-.157l-.05-.029c-.1-.061-.196-.124-.283-.189L0 14.45v4.145c0 .97 3.424 2.324 9 2.324 5.575 0 9-1.354 9-2.324v-4.148zM18 3.6l-.03.02c-.088.065-.182.128-.283.19l-.05.029c-.091.053-.187.105-.287.155l-.082.041c-.116.057-.235.112-.362.165l-.074.03c-.112.046-.226.09-.344.134l-.097.035c-.138.048-.28.095-.428.14l-.099.03c-.128.039-.258.075-.39.111l-.106.028c-.156.04-.318.08-.484.116-.039.01-.078.017-.117.026-.144.031-.29.062-.44.091l-.103.02c-.174.034-.35.065-.529.094l-.131.02c-.157.026-.318.05-.48.073l-.096.013c-.185.026-.373.05-.562.07l-.142.015c-.174.019-.348.036-.523.052l-.072.006c-.195.017-.39.032-.587.045l-.145.013c-.186.011-.373.022-.56.03l-.046.002c-.2.009-.4.015-.6.02l-.146.003c-.201.004-.403.006-.604.006-.2 0-.402-.002-.604-.006l-.146-.003c-.2-.005-.4-.011-.6-.02l-.046-.002c-.187-.008-.373-.019-.56-.03l-.146-.01c-.196-.013-.391-.027-.587-.044l-.07-.007c-.176-.016-.35-.033-.524-.052l-.143-.015c-.188-.022-.376-.045-.561-.07l-.099-.012c-.161-.022-.32-.046-.479-.071l-.131-.021c-.18-.03-.355-.06-.529-.094l-.104-.02c-.148-.03-.295-.06-.439-.092l-.117-.025c-.165-.037-.327-.076-.484-.116l-.105-.028c-.134-.036-.264-.073-.391-.111l-.1-.03c-.146-.045-.289-.092-.427-.14l-.097-.036c-.118-.043-.232-.087-.344-.133l-.074-.03C.968 4.152.848 4.097.732 4.04L.65 3.998c-.1-.05-.195-.103-.287-.155l-.05-.028c-.1-.062-.196-.125-.283-.19L0 3.605v4.143c0 .968 3.424 2.324 9 2.324 5.575 0 9-1.356 9-2.324V3.6z" transform="translate(-566 -109) translate(566 109)"/>
                <path d="M18 2.324C18 1.041 13.97 0 9 0S0 1.04 0 2.324C0 3.608 4.03 4.65 9 4.65s9-1.041 9-2.325z" transform="translate(-566 -109) translate(566 109)"/>
            </g>
        </g>
    </g>
</svg>
