<svg xmlns="http://www.w3.org/2000/svg" width="20" height="23" viewBox="0 0 20 23">
    <g fill="none" fill-rule="evenodd">
        <g fill="#000" fill-rule="nonzero">
            <g>
                <path d="M.317 14.045h3.982c.175 0 .316-.142.316-.318V8.5c0-.176-.141-.318-.316-.318H2.262v-.818h5.792v.818H6.38c-.175 0-.317.142-.317.318v5.227c0 .176.142.318.317.318h3.982c.175 0 .317-.142.317-.318V8.5c0-.176-.142-.318-.317-.318H8.688v-.818h5.792v.818h-2.037c-.175 0-.316.142-.316.318v5.227c0 .176.141.318.316.318h1.765v.591h-2.845c-.178.007-.32.154-.322.334v1.44H9.367c-.175 0-.317.141-.317.317v5.228c0 .175.142.318.317.318h3.981c.175 0 .317-.143.317-.318v-5.228c0-.176-.142-.318-.317-.318h-1.674v-1.136h5.702v1.136H15.7c-.175 0-.316.142-.316.318v5.228c0 .175.141.318.316.318h3.982c.175 0 .317-.143.317-.318v-5.228c0-.176-.142-.318-.317-.318H18.01v-1.44c-.003-.18-.146-.326-.326-.333h-2.841v-.59h1.583c.175 0 .317-.143.317-.319V8.5c0-.176-.142-.318-.317-.318h-1.312V7.045c-.007-.178-.154-.319-.332-.318H8.688v-.863h1.674c.175 0 .317-.143.317-.319V.318c0-.176-.142-.318-.317-.318H6.38c-.175 0-.317.142-.317.318v5.227c0 .176.142.319.317.319h1.674v.863H1.96c-.177 0-.324.14-.331.318v1.137H.317C.142 8.182 0 8.324 0 8.5v5.227c0 .176.142.318.317.318zm11.987 7.182h-1.88c-.176 0-.318-.142-.318-.318 0-.176.142-.318.317-.318h1.881c.175 0 .317.142.317.318 0 .176-.142.318-.317.318zm0-1.045h-1.88c-.176 0-.318-.143-.318-.318 0-.176.142-.319.317-.319h1.881c.175 0 .317.143.317.319 0 .175-.142.318-.317.318zm0-1.046h-1.88c-.176 0-.318-.142-.318-.318 0-.176.142-.318.317-.318h1.881c.175 0 .317.142.317.318 0 .176-.142.318-.317.318zm0-1.681c.175 0 .317.142.317.318 0 .176-.142.318-.317.318h-1.88c-.176 0-.318-.142-.318-.318 0-.176.142-.318.317-.318h1.881zm6.335 3.772h-1.881c-.175 0-.317-.142-.317-.318 0-.176.142-.318.317-.318h1.88c.176 0 .318.142.318.318 0 .176-.142.318-.317.318zm0-1.045h-1.881c-.175 0-.317-.143-.317-.318 0-.176.142-.319.317-.319h1.88c.176 0 .318.143.318.319 0 .175-.142.318-.317.318zm0-1.046h-1.881c-.175 0-.317-.142-.317-.318 0-.176.142-.318.317-.318h1.88c.176 0 .318.142.318.318 0 .176-.142.318-.317.318zm0-1.681c.175 0 .317.142.317.318 0 .176-.142.318-.317.318h-1.881c-.175 0-.317-.142-.317-.318 0-.176.142-.318.317-.318h1.88zM15.38 13H13.5c-.176 0-.317-.142-.317-.318 0-.176.141-.318.316-.318h1.881c.175 0 .317.142.317.318 0 .176-.142.318-.317.318zm0-1.045H13.5c-.176 0-.317-.143-.317-.319 0-.175.141-.318.316-.318h1.881c.175 0 .317.143.317.318 0 .176-.142.319-.317.319zm0-1.046H13.5c-.176 0-.317-.142-.317-.318 0-.176.141-.318.316-.318h1.881c.175 0 .317.142.317.318 0 .176-.142.318-.317.318zm0-1.682c.175 0 .317.143.317.318 0 .176-.142.319-.317.319H13.5c-.176 0-.317-.143-.317-.319 0-.175.141-.318.316-.318h1.881zM9.311 13h-1.88c-.176 0-.318-.142-.318-.318 0-.176.142-.318.317-.318h1.881c.175 0 .317.142.317.318 0 .176-.142.318-.317.318zm0-1.045h-1.88c-.176 0-.318-.143-.318-.319 0-.175.142-.318.317-.318h1.881c.175 0 .317.143.317.318 0 .176-.142.319-.317.319zm0-1.046h-1.88c-.176 0-.318-.142-.318-.318 0-.176.142-.318.317-.318h1.881c.175 0 .317.142.317.318 0 .176-.142.318-.317.318zm-1.88-9.864h1.88c.175 0 .317.143.317.319 0 .175-.142.318-.317.318h-1.88c-.176 0-.318-.143-.318-.318 0-.176.142-.319.317-.319zm0 1.046h1.88c.175 0 .317.142.317.318 0 .176-.142.318-.317.318h-1.88c-.176 0-.318-.142-.318-.318 0-.176.142-.318.317-.318zm0 1.045h1.88c.175 0 .317.143.317.319 0 .175-.142.318-.317.318h-1.88c-.176 0-.318-.143-.318-.318 0-.176.142-.319.317-.319zm0 1.682c-.176 0-.318-.142-.318-.318 0-.176.142-.318.317-.318h1.881c.175 0 .317.142.317.318 0 .176-.142.318-.317.318h-1.88zm1.88 4.41c.175 0 .317.142.317.317 0 .176-.142.319-.317.319h-1.88c-.176 0-.318-.143-.318-.319 0-.175.142-.318.317-.318h1.881zm-7.95 0h1.881c.175 0 .317.142.317.317 0 .176-.142.319-.317.319h-1.88c-.176 0-.318-.143-.318-.319 0-.175.142-.318.317-.318zm0 1.045h1.881c.175 0 .317.142.317.318 0 .176-.142.318-.317.318h-1.88c-.176 0-.318-.142-.318-.318 0-.176.142-.318.317-.318zm0 1.045h1.881c.175 0 .317.143.317.318 0 .176-.142.319-.317.319h-1.88c-.176 0-.318-.143-.318-.319 0-.175.142-.318.317-.318zm0 1.046h1.881c.175 0 .317.142.317.318 0 .176-.142.318-.317.318h-1.88c-.176 0-.318-.142-.318-.318 0-.176.142-.318.317-.318z" transform="translate(-346 -167) translate(346 167)"/>
            </g>
        </g>
    </g>
</svg>
