<svg xmlns="http://www.w3.org/2000/svg" width="20" height="17" viewBox="0 0 20 17">
    <g fill="none" fill-rule="evenodd">
        <g fill="#000" fill-rule="nonzero">
            <g>
                <path d="M16.445 12.353h-2.38c-.607.95-1.417 1.752-2.368 2.353h4.748v1.765L20 13.53l-3.555-2.941v1.764zM7.7 14.704c3.54-.024 6.402-2.91 6.402-6.468 0-3.375-2.575-6.144-5.86-6.442V0L4.727 2.941l3.515 2.941V4.177c1.983.289 3.516 1.99 3.516 4.059 0 2.27-1.84 4.117-4.102 4.117H0v2.353h7.703l-.002-.002z" transform="translate(-347 -109) translate(347 109)"/>
                <path d="M4.795 11.177c-.763-.748-1.24-1.789-1.24-2.941 0-1.368.674-2.573 1.7-3.322l-1.842-1.54C2.066 4.558 1.21 6.295 1.21 8.235c0 1.063.272 2.056.724 2.94h2.86z" transform="translate(-347 -109) translate(347 109)"/>
            </g>
        </g>
    </g>
</svg>
