<svg xmlns="http://www.w3.org/2000/svg" width="24" height="19" viewBox="0 0 24 19">
    <g fill="none" fill-rule="evenodd">
        <g fill="#000" fill-rule="nonzero">
            <g>
                <path d="M23.851 8.769l-6.125-6.125c-.19-.19-.527-.19-.718 0L15.68 3.972c-.198.198-.198.52 0 .718l4.439 4.438-4.439 4.438c-.198.199-.198.52 0 .718l1.328 1.328c.096.096.225.15.36.15.134 0 .263-.054.359-.15l6.124-6.125c.199-.198.199-.52 0-.718zM8.32 13.566L3.882 9.128 8.32 4.69c.096-.095.15-.224.15-.359 0-.134-.054-.264-.15-.359L6.992 2.644c-.095-.095-.224-.149-.359-.149-.134 0-.264.054-.359.15L.15 8.768c-.199.198-.199.52 0 .718l6.125 6.125c.095.095.224.15.359.15.135 0 .264-.055.36-.15l1.327-1.328c.198-.198.198-.52 0-.718zM15.483.583c-.064-.118-.173-.206-.302-.244L14.104.02c-.268-.08-.551.074-.63.343L8.476 17.29c-.038.129-.023.268.04.386.065.119.174.206.303.245l1.077.317c.048.015.096.021.144.021.219 0 .421-.143.486-.364L15.524.969c.038-.129.024-.268-.04-.386z" transform="translate(-566 -170) translate(566 170)"/>
            </g>
        </g>
    </g>
</svg>
