<svg xmlns="http://www.w3.org/2000/svg" xmlns:xlink="http://www.w3.org/1999/xlink" width="813" height="158" viewBox="0 0 813 158"><defs><filter id="a" x="0" y="0" width="813" height="158" filterUnits="userSpaceOnUse"><feOffset dy="16" input="SourceAlpha"/><feGaussianBlur stdDeviation="7.5" result="b"/><feFlood flood-color="#131313" flood-opacity="0.737"/><feComposite operator="in" in2="b"/><feComposite in="SourceGraphic"/></filter></defs><g transform="matrix(1, 0, 0, 1, 0, 0)" filter="url(#a)"><g transform="translate(22.5 6.5)" fill="#fff"><path d="M 711.5 112.5 L 56.5 112.5 C 48.93980026245117 112.5 41.60609817504883 111.019401550293 34.70240020751953 108.0994033813477 C 31.38430023193359 106.6959991455078 28.18390083312988 104.9589004516602 25.19020080566406 102.9364013671875 C 22.22480010986328 100.9329986572266 19.43630027770996 98.6322021484375 16.90200042724609 96.09799957275391 C 14.36779975891113 93.56369781494141 12.06700038909912 90.77519989013672 10.06359958648682 87.80979919433594 C 8.041099548339844 84.81610107421875 6.303999900817871 81.61569976806641 4.900599956512451 78.29759979248047 C 1.980599999427795 71.39389801025391 0.5 64.06020355224609 0.5 56.5 C 0.5 48.93980026245117 1.980599999427795 41.60609817504883 4.900599956512451 34.70240020751953 C 6.303999900817871 31.38430023193359 8.041099548339844 28.18390083312988 10.06359958648682 25.19020080566406 C 12.06700038909912 22.22480010986328 14.36779975891113 19.43630027770996 16.90200042724609 16.90200042724609 C 19.43630027770996 14.36779975891113 22.22480010986328 12.06700038909912 25.19020080566406 10.06359958648682 C 28.18390083312988 8.041099548339844 31.38430023193359 6.303999900817871 34.70240020751953 4.900599956512451 C 41.60609817504883 1.980599999427795 48.93980026245117 0.5 56.5 0.5 L 711.5 0.5 C 719.0601806640625 0.5 726.3939208984375 1.980599999427795 733.297607421875 4.900599956512451 C 736.61572265625 6.303999900817871 739.8161010742188 8.041099548339844 742.809814453125 10.06359958648682 C 745.7752075195313 12.06700038909912 748.563720703125 14.36779975891113 751.0980224609375 16.90200042724609 C 753.6322021484375 19.43630027770996 755.9329833984375 22.22480010986328 757.9364013671875 25.19020080566406 C 759.9589233398438 28.18390083312988 761.6959838867188 31.38430023193359 763.0994262695313 34.70240020751953 C 766.0194091796875 41.60609817504883 767.5 48.93980026245117 767.5 56.5 C 767.5 64.06020355224609 766.0194091796875 71.39389801025391 763.0994262695313 78.29759979248047 C 761.6959838867188 81.61569976806641 759.9589233398438 84.81610107421875 757.9364013671875 87.80979919433594 C 755.9329833984375 90.77519989013672 753.6322021484375 93.56369781494141 751.0980224609375 96.09799957275391 C 748.563720703125 98.6322021484375 745.7752075195313 100.9329986572266 742.809814453125 102.9364013671875 C 739.8161010742188 104.9589004516602 736.61572265625 106.6959991455078 733.297607421875 108.0994033813477 C 726.3939208984375 111.019401550293 719.0601806640625 112.5 711.5 112.5 Z" stroke="none"/><path d="M 56.5 1 C 49.007080078125 1 41.7388916015625 2.467300415039063 34.897216796875 5.361099243164063 C 31.60882568359375 6.751899719238281 28.43707275390625 8.473503112792969 25.4700927734375 10.47789764404297 C 22.5311279296875 12.4635009765625 19.76727294921875 14.74379730224609 17.255615234375 17.25559997558594 C 14.7437744140625 19.76730346679688 12.4635009765625 22.53109741210938 10.4779052734375 25.47010040283203 C 8.4735107421875 28.43710327148438 6.75189208984375 31.60880279541016 5.361083984375 34.89720153808594 C 2.46728515625 41.73889923095703 1 49.00709915161133 1 56.5 C 1 63.99290084838867 2.46728515625 71.26110076904297 5.361083984375 78.10279846191406 C 6.75189208984375 81.39119720458984 8.4735107421875 84.56289672851563 10.4779052734375 87.52989959716797 C 12.4635009765625 90.46890258789063 14.7437744140625 93.23269653320313 17.255615234375 95.74440002441406 C 19.76727294921875 98.25620269775391 22.5311279296875 100.5364990234375 25.4700927734375 102.522102355957 C 28.43707275390625 104.526496887207 31.60882568359375 106.2481002807617 34.897216796875 107.6389007568359 C 41.7388916015625 110.5326995849609 49.007080078125 112 56.5 112 L 711.5 112 C 718.992919921875 112 726.2611083984375 110.5326995849609 733.102783203125 107.6389007568359 C 736.3911743164063 106.2481002807617 739.5629272460938 104.526496887207 742.5299072265625 102.522102355957 C 745.4688720703125 100.5364990234375 748.2327270507813 98.25620269775391 750.744384765625 95.74440002441406 C 753.2562255859375 93.23269653320313 755.5364990234375 90.46890258789063 757.5220947265625 87.52989959716797 C 759.5264892578125 84.56289672851563 761.2481079101563 81.39119720458984 762.638916015625 78.10279846191406 C 765.53271484375 71.26110076904297 767 63.99290084838867 767 56.5 C 767 49.00709915161133 765.53271484375 41.73889923095703 762.638916015625 34.89720153808594 C 761.2481079101563 31.60880279541016 759.5264892578125 28.43710327148438 757.5220947265625 25.47010040283203 C 755.5364990234375 22.53109741210938 753.2562255859375 19.76730346679688 750.744384765625 17.25559997558594 C 748.2327270507813 14.74379730224609 745.4688720703125 12.4635009765625 742.5299072265625 10.47789764404297 C 739.5629272460938 8.473503112792969 736.3911743164063 6.751899719238281 733.102783203125 5.361099243164063 C 726.2611083984375 2.467300415039063 718.992919921875 1 711.5 1 L 56.5 1 M 56.5 0 L 711.5 0 C 742.7041015625 0 768 25.2958984375 768 56.5 C 768 87.7041015625 742.7041015625 113 711.5 113 L 56.5 113 C 25.2958984375 113 0 87.7041015625 0 56.5 C 0 25.2958984375 25.2958984375 0 56.5 0 Z" stroke="none" fill="#707070"/></g></g></svg>